<svg xmlns="http://www.w3.org/2000/svg" viewBox="0 0 396.01 368.15"><defs><style>.cls-1{fill:#fff;}.cls-2{fill:#75b843;}.cls-3{fill:#3f245e;}.cls-4{fill:#f1f1f1;}.cls-5{fill:#818080;}</style></defs><title>imagotipo-t-rexpace</title><g id="Capa_2" data-name="Capa 2"><g id="Capa_1-2" data-name="Capa 1"><polygon class="cls-1" points="349.81 64.59 321.06 64.59 321.06 35.78 94.86 35.78 94.86 64.59 66.29 64.59 66.29 234.24 94.86 234.24 94.86 262.51 179.69 262.51 179.69 279.65 193.83 279.65 193.83 290.79 222.1 290.79 222.1 279.65 236.24 279.65 236.24 262.51 321.06 262.51 321.06 234.24 349.81 234.24 349.81 64.59"/><path class="cls-1" d="M45.37,306.5v9.44H28v52.21H17.53V315.94H.22V306.5Z"/><path class="cls-1" d="M65.62,337v6.77H42.35V337Z"/><path class="cls-2" d="M107.48,306.5,115.54,319v14.75l-7.33,10.81,10.08,23.63H107.57L98.5,346.26H82.29v21.89H71.94V306.5ZM82.29,338.2h18.5l4.67-7.79v-7.79l-4.39-7.51H82.29Z"/><path class="cls-2" d="M159.41,306.5v9.44H134.68v16.39H159v8.52H134.68v17.86h24.83v9.44H124.33V306.5Z"/><path class="cls-2" d="M213,306.5l-17.4,29.59,18.59,32.06H202.47l-12.92-24.37-13.74,24.37h-11L184.24,335,167.57,306.5h11.81l11,20.8,11.55-20.8Z"/><path class="cls-1" d="M256,306.5l9.43,14.75v14.2L256,350.2h-25.1v17.95H220.51V306.5Zm-25.1,35.09H250l5-8.71V324l-5-8.7H230.86Z"/><path class="cls-1" d="M293.79,306.5l19,61.65H302.22l-4-13.83H276.94L273,368.15H262.92l18.6-61.65Zm-14.66,40H295.9l-8.43-29.22Z"/><path class="cls-1" d="M341.33,306.5l11.26,3.3v9.89l-10.44-3.75H330.61L324.2,327.3v20.15l6.5,11.26h12.55l9.53-3.38v9.8l-9.8,3H324.93l-11.54-18.23v-25.1l11.54-18.32Z"/><path class="cls-1" d="M395.92,306.5v9.44H371.19v16.39h24.27v8.52H371.19v17.86H396v9.44H360.84V306.5Z"/><polygon class="cls-3" points="339.77 56.55 311.03 56.55 311.03 27.75 84.83 27.75 84.83 56.55 56.25 56.55 56.25 226.2 84.83 226.2 84.83 254.48 169.65 254.48 169.65 271.62 183.79 271.62 183.79 282.75 212.06 282.75 212.06 271.62 226.2 271.62 226.2 254.48 311.03 254.48 311.03 226.2 339.77 226.2 339.77 56.55"/><path class="cls-1" d="M213,283.73H182.82V272.59H168.68V255.45H83.85V227.18H55.28V55.58H83.85V26.77H312V55.58h28.74v171.6H312v28.27H227.18v17.14H213Zm-28.28-2h26.33V270.64h14.14V253.5h84.83V225.23H338.8V57.53H310.06V28.72H85.8V57.53H57.23v167.7H85.8V253.5h84.83v17.14h14.13Z"/><g id="_Grupo_" data-name="&lt;Grupo&gt;"><polygon class="cls-2" points="247.77 176.17 256.74 176.17 256.74 189.33 222.04 189.33 222.04 226.2 136.47 226.2 136.47 188.13 148.43 188.13 148.43 173.77 161 173.77 161 127.7 172.37 127.7 172.37 100.37 244.78 100.37 244.76 128.29 281.88 128.29 281.88 164.8 247.77 164.8 247.77 176.17"/><rect class="cls-4" x="193.87" y="114.69" width="14.17" height="14.17"/><rect class="cls-4" x="200.95" y="154.27" width="11.24" height="10.59"/><rect class="cls-4" x="189.56" y="143.63" width="11.24" height="10.59"/><rect class="cls-4" x="212.22" y="164.82" width="35.64" height="11.37"/></g><polygon class="cls-1" points="200.59 67.44 155.48 67.44 155.48 75.93 143.6 75.93 143.6 83.76 129.95 83.76 129.95 93.56 121.05 93.56 121.05 102.7 111.55 102.7 111.55 184.95 121.05 184.95 121.05 197.35 131.14 197.35 131.14 208.45 204.75 208.45 204.75 201.27 183.97 201.27 183.97 191.48 172.1 191.48 172.1 90.94 184.56 90.94 184.56 82.46 200.59 82.46 200.59 67.44"/><polygon class="cls-1" points="277.4 208.45 206.57 208.45 206.57 206.86 275.83 206.86 275.83 195.89 285.02 195.89 285.02 183.63 293.67 183.63 293.67 103.89 285.02 103.89 285.02 94.85 276.91 94.85 276.91 85.17 264.48 85.17 264.48 77.42 253.67 77.42 253.67 69.03 201.84 69.03 201.84 67.44 255.24 67.44 255.24 75.84 266.06 75.84 266.06 83.58 278.49 83.58 278.49 93.26 286.59 93.26 286.59 102.3 295.24 102.3 295.24 185.21 286.59 185.21 286.59 197.48 277.4 197.48 277.4 208.45"/><polygon class="cls-5" points="207.72 208.45 201.78 208.45 201.78 204.24 181 204.24 181 194.45 169.13 194.45 169.13 87.97 181.59 87.97 181.59 79.49 197.62 79.49 197.62 67.44 203.56 67.44 203.56 85.43 187.54 85.43 187.54 93.92 175.07 93.92 175.07 188.51 186.94 188.51 186.94 198.3 207.72 198.3 207.72 208.45"/><rect class="cls-5" x="253.71" y="132.8" width="6.71" height="6.71"/><rect class="cls-5" x="271.11" y="132.8" width="6.71" height="6.71"/><rect class="cls-5" x="183.98" y="107.6" width="15.77" height="3.08"/><rect class="cls-5" x="130.18" y="132.64" width="23.25" height="23.25"/><rect class="cls-5" x="138.38" y="58.72" width="5.67" height="77.82"/><rect class="cls-2" x="135" y="47.16" width="12.11" height="12.11"/><rect class="cls-5" x="198.91" y="114.83" width="9.01" height="9.01"/><rect class="cls-4" x="200.31" y="115.83" width="3.05" height="3.05"/><rect class="cls-4" x="203.87" y="119.08" width="1.75" height="1.75"/><rect class="cls-1" x="367.58" y="254.48" width="28.28" height="28.28"/><rect class="cls-2" x="367.58" y="28.28" width="28.28" height="28.28"/><rect class="cls-1" x="28.28" width="28.28" height="28.28"/><rect class="cls-2" y="141.38" width="28.28" height="28.28"/></g></g></svg>